<svg width="26" height="27" viewBox="0 0 26 27" fill="none" xmlns="http://www.w3.org/2000/svg">
<rect x="-0.000976562" y="0.5" width="26" height="26" rx="13" fill="#145186"/>
<path d="M8.49905 8.5H13.7993C13.9319 8.5 14.0591 8.55268 14.1528 8.64645C14.2466 8.74023 14.2993 8.86741 14.2993 9.00002C14.2993 9.13264 14.2466 9.25982 14.1528 9.35359C14.0591 9.44736 13.9319 9.50004 13.7993 9.50004H9.70577L17.8528 17.6471C17.9464 17.7408 17.999 17.8679 17.999 18.0004C17.999 18.1329 17.9464 18.26 17.8528 18.3538C17.759 18.4474 17.6319 18.5 17.4994 18.5C17.3669 18.5 17.2398 18.4474 17.1461 18.3538L8.99907 10.2067V14.3003C8.99907 14.4329 8.94639 14.5601 8.85261 14.6538C8.75884 14.7476 8.63166 14.8003 8.49905 14.8003C8.36643 14.8003 8.23925 14.7476 8.14548 14.6538C8.0517 14.5601 7.99902 14.4329 7.99902 14.3003V9.00002C7.99902 8.86741 8.0517 8.74023 8.14548 8.64645C8.23925 8.55268 8.36643 8.5 8.49905 8.5V8.5Z" fill="white"/>
</svg>
