<svg width="20" height="20" viewBox="0 0 20 20" fill="none" xmlns="http://www.w3.org/2000/svg">
<g id="call received 1" clip-path="url(#clip0_3748_12038)">
<g id="Layer 2">
<g id="Layer 1">
<path id="call received" d="M19.7169 10.0001C19.7168 9.81268 19.6423 9.633 19.5098 9.5005C19.3773 9.368 19.1976 9.29351 19.0102 9.29339L2.71686 9.2934L6.8102 5.20006C6.94281 5.06745 7.01731 4.88759 7.01731 4.70006C7.01731 4.51252 6.94281 4.33266 6.8102 4.20005C6.67759 4.06745 6.49774 3.99295 6.3102 3.99295C6.12266 3.99295 5.94281 4.06745 5.8102 4.20006L0.51019 9.50006C0.377582 9.63267 0.303084 9.81253 0.303084 10.0001C0.303084 10.1876 0.377582 10.3675 0.510191 10.5001L5.8102 15.8001C5.94281 15.9327 6.12266 16.0072 6.3102 16.0072C6.49774 16.0072 6.67759 15.9327 6.8102 15.8001C6.94281 15.6675 7.01731 15.4876 7.01731 15.3001C7.01731 15.1125 6.94281 14.9327 6.8102 14.8001L2.71686 10.7067L19.0102 10.7067C19.1976 10.7066 19.3773 10.6321 19.5098 10.4996C19.6423 10.3671 19.7168 10.1874 19.7169 10.0001Z" fill="white"/>
</g>
</g>
</g>
<defs>
<clipPath id="clip0_3748_12038">
<rect width="14.1422" height="14.1422" fill="white" transform="translate(10.0098) rotate(45)"/>
</clipPath>
</defs>
</svg>
