<svg width="177" height="53" viewBox="0 0 177 53" fill="none" xmlns="http://www.w3.org/2000/svg">
<path d="M175.826 46.2528C175.826 46.9129 175.696 47.5665 175.443 48.1762C175.19 48.786 174.82 49.3399 174.352 49.8064C173.885 50.2729 173.331 50.6428 172.721 50.8949C172.111 51.147 171.457 51.2764 170.796 51.2758H6.20356C4.86953 51.2771 3.58956 50.7488 2.64515 49.8068C1.70074 48.8649 1.16922 47.5865 1.16748 46.2528V6.19649C1.16922 4.86221 1.70053 3.58315 2.64475 2.64016C3.58897 1.69717 4.86892 1.16734 6.20356 1.16699H170.795C171.456 1.16699 172.11 1.29709 172.72 1.54987C173.33 1.80264 173.885 2.17313 174.352 2.64018C174.819 3.10723 175.189 3.66169 175.442 4.27188C175.695 4.88208 175.825 5.53607 175.825 6.19649L175.826 46.2528Z" fill="white"/>
<path d="M170.796 52.4445H6.2036C4.56022 52.4441 2.9841 51.7921 1.82108 50.6313C0.658057 49.4706 0.00312689 47.896 0 46.253L0 6.19802C0.00243113 4.55427 0.656929 2.97859 1.81992 1.81665C2.9829 0.654712 4.55941 0.00138739 6.2036 0L170.795 0C172.439 0.00207966 174.015 0.655626 175.178 1.81742C176.341 2.97921 176.996 4.55448 176.999 6.19802V46.253C177.001 49.6681 174.214 52.4445 170.796 52.4445V52.4445Z" fill="#A6A6A6"/>
<path d="M175.826 46.2528C175.826 46.9129 175.696 47.5665 175.443 48.1762C175.19 48.786 174.82 49.3399 174.352 49.8064C173.885 50.2729 173.331 50.6428 172.721 50.8949C172.111 51.147 171.457 51.2764 170.796 51.2758H6.20356C4.86953 51.2771 3.58956 50.7488 2.64515 49.8068C1.70074 48.8649 1.16922 47.5865 1.16748 46.2528V6.19649C1.16922 4.86221 1.70053 3.58315 2.64475 2.64016C3.58897 1.69717 4.86892 1.16734 6.20356 1.16699H170.795C171.456 1.16699 172.11 1.29709 172.72 1.54987C173.33 1.80264 173.885 2.17313 174.352 2.64018C174.819 3.10723 175.189 3.66169 175.442 4.27188C175.695 4.88208 175.825 5.53607 175.825 6.19649L175.826 46.2528Z" fill="black"/>
<path d="M39.5226 25.9461C39.4846 21.7192 42.9845 19.6628 43.1445 19.5671C41.1624 16.6779 38.0901 16.2831 37.0105 16.2517C34.4301 15.9802 31.9272 17.7953 30.6127 17.7953C29.272 17.7953 27.2479 16.2779 25.0663 16.3225C22.259 16.3658 19.6328 17.9907 18.1924 20.514C15.2198 25.6589 17.4368 33.2195 20.2848 37.3782C21.7094 39.4162 23.3741 41.689 25.553 41.609C27.6847 41.5224 28.481 40.2516 31.0535 40.2516C33.6024 40.2516 34.3501 41.609 36.5723 41.5579C38.8601 41.5224 40.3005 39.512 41.6753 37.4569C43.3216 35.1238 43.9828 32.8234 44.009 32.7054C43.9566 32.687 39.5672 31.011 39.5226 25.9461V25.9461ZM35.3248 13.5159C36.4713 12.0825 37.2558 10.1323 37.038 8.15332C35.3786 8.22676 33.3033 9.30086 32.1082 10.7028C31.0509 11.9382 30.1064 13.9631 30.3504 15.8674C32.2145 16.0064 34.1284 14.9271 35.3248 13.5159V13.5159Z" fill="white"/>
<path d="M170.796 0H82.6353L117.166 52.4445H170.796C172.44 52.4431 174.016 51.7901 175.179 50.6288C176.342 49.4674 176.997 47.8924 177 46.2491V6.19802C176.997 4.55438 176.342 2.9789 175.179 1.81704C174.017 0.655169 172.44 0.00173366 170.796 0V0Z" fill="url(#paint0_linear_88_890)"/>
<path d="M70.3989 41.3164H67.4198L65.7879 36.1899H60.1156L58.5611 41.3164H55.6606L61.2818 23.8633H64.7529L70.3989 41.3164V41.3164ZM65.296 34.0391L63.8202 29.4817C63.6641 29.0161 63.3702 27.9197 62.9399 26.1938H62.8875C62.7143 26.9361 62.4375 28.0325 62.0584 29.4817L60.6075 34.0391H65.296ZM84.8264 34.8692C84.8264 37.0095 84.2452 38.7013 83.0816 39.9433C82.04 41.0489 80.7453 41.601 79.2013 41.601C77.5339 41.601 76.3349 41.0069 75.6069 39.8161V46.4194H72.8101V32.8679C72.8101 31.5237 72.7747 30.1453 72.7064 28.7315H75.1661L75.3222 30.7263H75.3747C76.3074 29.2233 77.7228 28.4719 79.6224 28.4719C81.1073 28.4719 82.347 29.0581 83.3387 30.2319C84.3292 31.4082 84.8264 32.9532 84.8264 34.8692ZM81.9771 34.9715C81.9771 33.7466 81.7016 32.7368 81.148 31.9407C80.5433 31.1132 79.7312 30.6987 78.7133 30.6987C78.0232 30.6987 77.3962 30.9296 76.836 31.3846C76.2746 31.8437 75.9073 32.443 75.7354 33.1853C75.6587 33.4629 75.6151 33.7486 75.6056 34.0364V36.1361C75.6056 37.0502 75.8863 37.8227 76.4478 38.4548C77.0092 39.0843 77.7386 39.4004 78.6359 39.4004C79.6893 39.4004 80.5091 38.9925 81.0955 38.1833C81.6832 37.3715 81.9771 36.3014 81.9771 34.9715V34.9715ZM99.3049 34.8692C99.3049 37.0095 98.7238 38.7013 97.5602 39.9433C96.5173 41.0489 95.2238 41.601 93.6785 41.601C92.0112 41.601 90.8122 41.0069 90.0841 39.8161V46.4194H87.2873V32.8679C87.2873 31.5237 87.2519 30.1453 87.1837 28.7315H89.6434L89.7995 30.7263H89.8519C90.7833 29.2233 92.1988 28.4719 94.0996 28.4719C95.5833 28.4719 96.823 29.0581 97.8173 30.2319C98.8064 31.4082 99.3049 32.9532 99.3049 34.8692V34.8692ZM96.4543 34.9715C96.4543 33.7466 96.1775 32.7368 95.6239 31.9407C95.0192 31.1132 94.2098 30.6987 93.1918 30.6987C92.5018 30.6987 91.8748 30.9296 91.312 31.3846C90.7505 31.8437 90.3845 32.443 90.2127 33.1853C90.1274 33.5315 90.0815 33.8135 90.0815 34.0364V36.1361C90.0815 37.0502 90.3635 37.8227 90.9224 38.4548C91.4838 39.083 92.2132 39.4004 93.1131 39.4004C94.1678 39.4004 94.9877 38.9925 95.5728 38.1833C96.1605 37.3715 96.4543 36.3014 96.4543 34.9715V34.9715ZM115.493 36.4207C115.493 37.9066 114.973 39.1145 113.941 40.0469C112.805 41.0646 111.219 41.5748 109.186 41.5748C107.307 41.5748 105.801 41.2128 104.665 40.4876L105.312 38.1571C106.538 38.8836 107.886 39.2456 109.352 39.2456C110.407 39.2456 111.227 39.0069 111.812 38.5335C112.398 38.0587 112.695 37.424 112.695 36.6318C112.695 35.9223 112.449 35.3282 111.968 34.8443C111.484 34.3617 110.684 33.9118 109.559 33.4987C106.503 32.3591 104.973 30.6922 104.973 28.4994C104.973 27.0673 105.514 25.8948 106.592 24.9781C107.67 24.0627 109.1 23.605 110.879 23.605C112.468 23.605 113.791 23.8817 114.842 24.4338L114.14 26.7132C113.151 26.1781 112.035 25.9105 110.786 25.9105C109.799 25.9105 109.026 26.1532 108.472 26.6358C108.006 27.0673 107.77 27.5932 107.77 28.2174C107.77 28.906 108.039 29.4778 108.574 29.9263C109.039 30.3394 109.886 30.7892 111.111 31.2719C112.615 31.8778 113.719 32.5833 114.426 33.3938C115.139 34.2043 115.493 35.2155 115.493 36.4207ZM124.763 30.8299H121.681V36.94C121.681 38.4941 122.224 39.2692 123.313 39.2692C123.812 39.2692 124.227 39.2272 124.555 39.1394L124.632 41.2627C124.081 41.4686 123.356 41.5722 122.457 41.5722C121.353 41.5722 120.49 41.2351 119.866 40.561C119.246 39.8869 118.934 38.7577 118.934 37.1682V30.8246H117.097V28.7263H118.934V26.422L121.681 25.5932V28.7263H124.763V30.8299V30.8299ZM138.645 34.9204C138.645 36.8548 138.092 38.443 136.987 39.685C135.831 40.9636 134.294 41.601 132.377 41.601C130.528 41.601 129.057 40.9886 127.96 39.7649C126.864 38.5387 126.315 36.9938 126.315 35.1302C126.315 33.18 126.882 31.5827 128.011 30.3407C129.144 29.0974 130.668 28.4758 132.584 28.4758C134.432 28.4758 135.915 29.0896 137.038 30.3145C138.111 31.5027 138.645 33.0371 138.645 34.9204ZM135.746 34.9846C135.746 33.8318 135.497 32.843 134.997 32.0155C134.411 31.0161 133.571 30.5164 132.483 30.5164C131.363 30.5164 130.504 31.0161 129.919 32.0155C129.418 32.843 129.169 33.8489 129.169 35.0371C129.169 36.1912 129.418 37.1827 129.919 38.0076C130.524 39.0069 131.367 39.5066 132.46 39.5066C133.529 39.5066 134.367 38.9964 134.973 37.9827C135.488 37.1354 135.746 36.14 135.746 34.9846ZM147.74 31.1905C147.449 31.138 147.154 31.1121 146.858 31.1132C145.875 31.1132 145.114 31.483 144.578 32.2279C144.114 32.8837 143.881 33.7125 143.881 34.7132V41.3164H141.084V32.6948C141.086 31.3737 141.059 30.0527 141.002 28.7328H143.438L143.541 31.1407H143.618C143.915 30.3132 144.379 29.6456 145.017 29.146C145.6 28.7093 146.309 28.4729 147.038 28.4719C147.297 28.4719 147.53 28.4902 147.737 28.523L147.74 31.1905V31.1905ZM160.248 34.4286C160.255 34.8536 160.221 35.2783 160.146 35.6968H151.755C151.787 36.94 152.194 37.8922 152.973 38.5479C153.68 39.1328 154.594 39.4266 155.717 39.4266C156.959 39.4266 158.093 39.2299 159.112 38.8325L159.55 40.7722C158.359 41.2915 156.953 41.5499 155.33 41.5499C153.378 41.5499 151.846 40.9754 150.731 39.8292C149.618 38.6817 149.061 37.1394 149.061 35.2076C149.061 33.3112 149.579 31.7309 150.617 30.4705C151.703 29.125 153.171 28.4522 155.018 28.4522C156.832 28.4522 158.206 29.125 159.138 30.4705C159.877 31.5368 160.248 32.8587 160.248 34.4286V34.4286ZM157.581 33.7033C157.601 32.8732 157.417 32.1584 157.038 31.5538C156.554 30.7748 155.809 30.3866 154.811 30.3866C153.896 30.3866 153.151 30.7656 152.585 31.5263C152.119 32.1309 151.842 32.8574 151.757 33.7007L157.581 33.7033Z" fill="white"/>
<path d="M59.3089 17.6928C58.531 17.6928 57.858 17.6547 57.2979 17.5905V9.15244C58.0813 9.03145 58.873 8.97181 59.6657 8.97408C62.8731 8.97408 64.3502 10.5518 64.3502 13.1236C64.3502 16.0901 62.6055 17.6928 59.3089 17.6928ZM59.7785 10.056C59.3456 10.056 58.977 10.0823 58.6713 10.1452V16.5596C58.8366 16.5859 59.1541 16.5977 59.6001 16.5977C61.7016 16.5977 62.898 15.4016 62.898 13.1616C62.898 11.1642 61.8158 10.056 59.7785 10.056V10.056ZM68.9534 17.757C67.1457 17.757 65.9742 16.4075 65.9742 14.5754C65.9742 12.6659 67.1706 11.3046 69.0557 11.3046C70.8371 11.3046 72.0348 12.5898 72.0348 14.4744C72.0348 16.4075 70.8004 17.757 68.9534 17.757ZM69.0058 12.3092C68.0128 12.3092 67.3766 13.2377 67.3766 14.536C67.3766 15.8095 68.0259 16.738 68.9927 16.738C69.9595 16.738 70.6089 15.7452 70.6089 14.5098C70.6089 13.2508 69.9727 12.3092 69.0058 12.3092ZM82.3431 11.4318L80.4082 17.6167H79.1475L78.346 14.9308C78.1467 14.2738 77.9808 13.6072 77.8488 12.9334H77.8226C77.7216 13.6075 77.5301 14.2829 77.3267 14.9308L76.474 17.6167H75.2003L73.3795 11.4318H74.7923L75.4928 14.3721C75.6581 15.0724 75.7971 15.7334 75.9126 16.3577H75.9388C76.0398 15.837 76.2051 15.1865 76.4478 14.3852L77.3267 11.4331H78.447L79.2879 14.3223C79.4912 15.0226 79.6565 15.7098 79.7851 16.359H79.8218C79.911 15.7229 80.0514 15.0475 80.2416 14.3223L80.9933 11.4331L82.3431 11.4318V11.4318ZM89.4663 17.6167H88.0915V14.0652C88.0915 12.9714 87.6717 12.4233 86.844 12.4233C86.0293 12.4233 85.4692 13.1236 85.4692 13.938V17.6167H84.0944V13.1996C84.0944 12.6528 84.0813 12.0665 84.0432 11.4305H85.2527L85.317 12.3852H85.3551C85.725 11.7242 86.4754 11.3046 87.3162 11.3046C88.6149 11.3046 89.4676 12.2974 89.4676 13.9131L89.4663 17.6167V17.6167ZM93.2575 17.6167H91.8814V8.59375H93.2575V17.6167ZM98.2699 17.757C96.4636 17.757 95.2908 16.4075 95.2908 14.5754C95.2908 12.6659 96.4872 11.3046 98.3709 11.3046C100.154 11.3046 101.35 12.5898 101.35 14.4744C101.351 16.4075 100.116 17.757 98.2699 17.757ZM98.3211 12.3092C97.328 12.3092 96.6918 13.2377 96.6918 14.536C96.6918 15.8095 97.3425 16.738 98.3067 16.738C99.2748 16.738 99.9228 15.7452 99.9228 14.5098C99.9241 13.2508 99.2892 12.3092 98.3211 12.3092V12.3092ZM106.771 17.6167L106.671 16.9046H106.634C106.214 17.4777 105.602 17.757 104.825 17.757C103.717 17.757 102.93 16.9806 102.93 15.9367C102.93 14.4101 104.253 13.6206 106.545 13.6206V13.5065C106.545 12.6921 106.113 12.2842 105.261 12.2842C104.651 12.2842 104.115 12.4377 103.644 12.7433L103.365 11.8396C103.937 11.4829 104.651 11.3046 105.489 11.3046C107.105 11.3046 107.921 12.157 107.921 13.8632V16.1413C107.921 16.7655 107.949 17.2495 108.01 17.618L106.771 17.6167V17.6167ZM106.582 14.536C105.055 14.536 104.289 14.9059 104.289 15.7832C104.289 16.4324 104.683 16.7498 105.232 16.7498C105.931 16.7498 106.582 16.216 106.582 15.4908V14.536V14.536ZM114.597 17.6167L114.533 16.6239H114.495C114.1 17.3741 113.436 17.757 112.508 17.757C111.017 17.757 109.912 16.4455 109.912 14.6003C109.912 12.6659 111.058 11.3033 112.621 11.3033C113.449 11.3033 114.035 11.5826 114.366 12.1439H114.394V8.59375H115.77V15.9498C115.77 16.5478 115.784 17.1078 115.821 17.6167H114.597ZM114.394 13.9773C114.394 13.1118 113.82 12.3734 112.945 12.3734C111.926 12.3734 111.303 13.277 111.303 14.5491C111.303 15.7964 111.95 16.6501 112.918 16.6501C113.782 16.6501 114.394 15.8987 114.394 15.0082V13.9773ZM124.495 17.757C122.688 17.757 121.517 16.4075 121.517 14.5754C121.517 12.6659 122.713 11.3046 124.597 11.3046C126.38 11.3046 127.576 12.5898 127.576 14.4744C127.577 16.4075 126.343 17.757 124.495 17.757ZM124.546 12.3092C123.554 12.3092 122.918 13.2377 122.918 14.536C122.918 15.8095 123.567 16.738 124.533 16.738C125.501 16.738 126.149 15.7452 126.149 14.5098C126.151 13.2508 125.515 12.3092 124.546 12.3092ZM134.969 17.6167H133.593V14.0652C133.593 12.9714 133.174 12.4233 132.346 12.4233C131.531 12.4233 130.972 13.1236 130.972 13.938V17.6167H129.596V13.1996C129.596 12.6528 129.583 12.0665 129.545 11.4305H130.755L130.819 12.3852H130.857C131.225 11.7242 131.977 11.3033 132.817 11.3033C134.115 11.3033 134.969 12.296 134.969 13.9118V17.6167ZM144.219 12.4626H142.707V15.4659C142.707 16.2305 142.972 16.6121 143.507 16.6121C143.749 16.6121 143.953 16.5859 144.117 16.5478L144.155 17.5918C143.888 17.6941 143.532 17.7452 143.088 17.7452C142.005 17.7452 141.357 17.1472 141.357 15.5813V12.4626H140.454V11.4318H141.357V10.2987L142.707 9.8908V11.4305H144.219V12.4626V12.4626ZM151.497 17.6167H150.124V14.0914C150.124 12.9846 149.705 12.4246 148.876 12.4246C148.164 12.4246 147.5 12.9085 147.5 13.8882V17.6167H146.126V8.59375H147.5V12.3092H147.527C147.96 11.6351 148.587 11.3033 149.388 11.3033C150.697 11.3033 151.497 12.321 151.497 13.938V17.6167V17.6167ZM158.953 14.8547H154.828C154.854 16.0259 155.629 16.6869 156.777 16.6869C157.387 16.6869 157.949 16.5846 158.444 16.3944L158.658 17.3491C158.073 17.6036 157.384 17.7308 156.583 17.7308C154.648 17.7308 153.503 16.5085 153.503 14.6134C153.503 12.717 154.676 11.2914 156.428 11.2914C158.009 11.2914 159.001 12.4626 159.001 14.2318C159.01 14.4406 158.994 14.6497 158.953 14.8547V14.8547ZM157.693 13.8751C157.693 12.9203 157.211 12.2462 156.332 12.2462C155.543 12.2462 154.918 12.9334 154.829 13.8751H157.693V13.8751Z" fill="white"/>
<defs>
<linearGradient id="paint0_linear_88_890" x1="129.816" y1="52.5837" x2="129.816" y2="-136.556" gradientUnits="userSpaceOnUse">
<stop stop-color="#1A1A1A" stop-opacity="0.1"/>
<stop offset="0.123" stop-color="#212121" stop-opacity="0.151"/>
<stop offset="0.308" stop-color="#353535" stop-opacity="0.227"/>
<stop offset="0.532" stop-color="#575757" stop-opacity="0.318"/>
<stop offset="0.783" stop-color="#858585" stop-opacity="0.421"/>
<stop offset="1" stop-color="#B3B3B3" stop-opacity="0.51"/>
</linearGradient>
</defs>
</svg>
