<svg width="177" height="53" viewBox="0 0 177 53" fill="none" xmlns="http://www.w3.org/2000/svg">
<path d="M170.444 52.4444H6.55556C2.88444 52.4444 0 49.56 0 45.8889V6.55556C0 2.88444 2.88444 0 6.55556 0H170.444C174.116 0 177 2.88444 177 6.55556V45.8889C177 49.56 174.116 52.4444 170.444 52.4444Z" fill="black"/>
<path d="M170.444 1.04889C173.46 1.04889 175.951 3.54 175.951 6.55556V45.8889C175.951 48.9044 173.46 51.3956 170.444 51.3956H6.55556C3.54 51.3956 1.04889 48.9044 1.04889 45.8889V6.55556C1.04889 3.54 3.54 1.04889 6.55556 1.04889H170.444ZM170.444 0H6.55556C2.88444 0 0 3.01556 0 6.55556V45.8889C0 49.56 2.88444 52.4444 6.55556 52.4444H170.444C174.116 52.4444 177 49.56 177 45.8889V6.55556C177 3.01556 174.116 0 170.444 0Z" fill="#A6A6A6"/>
<path d="M62.1465 13.3731C62.1465 14.4219 61.8842 15.3397 61.2287 15.9953C60.442 16.7819 59.5242 17.1753 58.3442 17.1753C57.1642 17.1753 56.2464 16.7819 55.4598 15.9953C54.6731 15.2086 54.2798 14.2908 54.2798 13.1108C54.2798 11.9308 54.6731 11.0131 55.4598 10.2264C56.2464 9.43972 57.1642 9.04639 58.3442 9.04639C58.8687 9.04639 59.3931 9.1775 59.9176 9.43972C60.442 9.70194 60.8353 9.96416 61.0976 10.3575L60.442 11.0131C59.9176 10.3575 59.262 10.0953 58.3442 10.0953C57.5576 10.0953 56.7709 10.3575 56.2465 11.0131C55.5909 11.5375 55.3287 12.3242 55.3287 13.2419C55.3287 14.1597 55.5909 14.9464 56.2465 15.4708C56.902 15.9953 57.5576 16.3886 58.3442 16.3886C59.262 16.3886 59.9176 16.1264 60.5731 15.4708C60.9665 15.0775 61.2287 14.5531 61.2287 13.8975H58.3442V12.8486H62.1465V13.3731V13.3731ZM68.1776 10.0953H64.6376V12.5864H67.9153V13.5042H64.6376V15.9953H68.1776V17.0442H63.5887V9.1775H68.1776V10.0953ZM72.5042 17.0442H71.4553V10.0953H69.2264V9.1775H74.7331V10.0953H72.5042V17.0442ZM78.5353 17.0442V9.1775H79.5842V17.0442H78.5353ZM84.042 17.0442H82.9931V10.0953H80.7642V9.1775H86.1398V10.0953H83.9109V17.0442H84.042ZM96.4976 15.9953C95.7109 16.7819 94.7931 17.1753 93.6131 17.1753C92.4331 17.1753 91.5153 16.7819 90.7287 15.9953C89.942 15.2086 89.5487 14.2908 89.5487 13.1108C89.5487 11.9308 89.942 11.0131 90.7287 10.2264C91.5153 9.43972 92.4331 9.04639 93.6131 9.04639C94.7931 9.04639 95.7109 9.43972 96.4976 10.2264C97.2842 11.0131 97.6776 11.9308 97.6776 13.1108C97.6776 14.2908 97.2842 15.2086 96.4976 15.9953ZM91.5153 15.3397C92.0398 15.8642 92.8265 16.2575 93.6131 16.2575C94.3998 16.2575 95.1864 15.9953 95.7109 15.3397C96.2353 14.8153 96.6287 14.0286 96.6287 13.1108C96.6287 12.1931 96.3664 11.4064 95.7109 10.8819C95.1864 10.3575 94.3998 9.96416 93.6131 9.96416C92.8265 9.96416 92.0398 10.2264 91.5153 10.8819C90.9909 11.4064 90.5976 12.1931 90.5976 13.1108C90.5976 14.0286 90.8598 14.8153 91.5153 15.3397ZM99.1198 17.0442V9.1775H100.3L104.102 15.3397V9.1775H105.151V17.0442H104.102L100.038 10.6197V17.0442H99.1198V17.0442Z" fill="white" stroke="white" stroke-width="0.2" stroke-miterlimit="10"/>
<path d="M89.2867 28.5821C86.1401 28.5821 83.6489 30.9421 83.6489 34.2199C83.6489 37.3666 86.1401 39.8577 89.2867 39.8577C92.4334 39.8577 94.9245 37.4977 94.9245 34.2199C94.9245 30.811 92.4334 28.5821 89.2867 28.5821ZM89.2867 37.4977C87.5823 37.4977 86.1401 36.0555 86.1401 34.0888C86.1401 32.1221 87.5823 30.6799 89.2867 30.6799C90.9912 30.6799 92.4334 31.991 92.4334 34.0888C92.4334 36.0555 90.9912 37.4977 89.2867 37.4977ZM77.0934 28.5821C73.9467 28.5821 71.4556 30.9421 71.4556 34.2199C71.4556 37.3666 73.9467 39.8577 77.0934 39.8577C80.2401 39.8577 82.7312 37.4977 82.7312 34.2199C82.7312 30.811 80.2401 28.5821 77.0934 28.5821ZM77.0934 37.4977C75.3889 37.4977 73.9467 36.0555 73.9467 34.0888C73.9467 32.1221 75.3889 30.6799 77.0934 30.6799C78.7978 30.6799 80.2401 31.991 80.2401 34.0888C80.2401 36.0555 78.7978 37.4977 77.0934 37.4977ZM62.5401 30.2866V32.6466H68.1778C68.0467 33.9577 67.5223 35.0066 66.8667 35.6621C66.0801 36.4488 64.7689 37.3666 62.5401 37.3666C59.0001 37.3666 56.3778 34.6133 56.3778 31.0733C56.3778 27.5333 59.1312 24.7799 62.5401 24.7799C64.3756 24.7799 65.8178 25.5666 66.8667 26.4844L68.5712 24.7799C67.1289 23.4688 65.2934 22.4199 62.6712 22.4199C57.9512 22.4199 53.8867 26.3533 53.8867 31.0733C53.8867 35.7933 57.9512 39.7266 62.6712 39.7266C65.2934 39.7266 67.1289 38.9399 68.7023 37.2355C70.2756 35.6621 70.8001 33.4333 70.8001 31.7288C70.8001 31.2044 70.8001 30.6799 70.6689 30.2866H62.5401V30.2866ZM122.065 32.1221C121.54 30.811 120.229 28.5821 117.345 28.5821C114.46 28.5821 112.1 30.811 112.1 34.2199C112.1 37.3666 114.46 39.8577 117.607 39.8577C120.098 39.8577 121.671 38.2844 122.196 37.3666L120.36 36.0555C119.705 36.9733 118.918 37.6288 117.607 37.6288C116.296 37.6288 115.509 37.1044 114.853 35.9244L122.327 32.7777L122.065 32.1221V32.1221ZM114.46 33.9577C114.46 31.8599 116.165 30.6799 117.345 30.6799C118.262 30.6799 119.18 31.2044 119.442 31.8599L114.46 33.9577ZM108.298 39.3333H110.789V22.9444H108.298V39.3333ZM104.365 29.7621C103.709 29.1066 102.66 28.451 101.349 28.451C98.5956 28.451 95.9734 30.9421 95.9734 34.0888C95.9734 37.2355 98.4645 39.5955 101.349 39.5955C102.66 39.5955 103.709 38.9399 104.233 38.2844H104.365V39.071C104.365 41.1688 103.185 42.3488 101.349 42.3488C99.9067 42.3488 98.8578 41.2999 98.5956 40.3821L96.4978 41.2999C97.1534 42.7421 98.7267 44.5777 101.48 44.5777C104.365 44.5777 106.725 42.8733 106.725 38.8088V28.8444H104.365V29.7621V29.7621ZM101.48 37.4977C99.7756 37.4977 98.3334 36.0555 98.3334 34.0888C98.3334 32.1221 99.7756 30.6799 101.48 30.6799C103.185 30.6799 104.496 32.1221 104.496 34.0888C104.496 36.0555 103.185 37.4977 101.48 37.4977ZM133.471 22.9444H127.571V39.3333H130.062V33.171H133.471C136.225 33.171 138.847 31.2044 138.847 28.0577C138.847 24.911 136.225 22.9444 133.471 22.9444V22.9444ZM133.602 30.811H130.062V25.1733H133.602C135.438 25.1733 136.487 26.7466 136.487 27.9266C136.356 29.3688 135.307 30.811 133.602 30.811ZM148.68 28.451C146.845 28.451 145.009 29.2377 144.353 30.9421L146.582 31.8599C147.107 30.9421 147.893 30.6799 148.811 30.6799C150.122 30.6799 151.302 31.4666 151.433 32.7777V32.9088C151.04 32.6466 149.991 32.2533 148.942 32.2533C146.582 32.2533 144.222 33.5644 144.222 35.9244C144.222 38.1533 146.189 39.5955 148.287 39.5955C149.991 39.5955 150.778 38.8088 151.433 38.0221H151.565V39.3333H153.925V33.0399C153.662 30.1555 151.433 28.451 148.68 28.451V28.451ZM148.418 37.4977C147.631 37.4977 146.451 37.1044 146.451 36.0555C146.451 34.7444 147.893 34.351 149.073 34.351C150.122 34.351 150.647 34.6133 151.302 34.8755C151.04 36.4488 149.729 37.4977 148.418 37.4977V37.4977ZM162.185 28.8444L159.431 35.9244H159.3L156.416 28.8444H153.793L158.12 38.8088L155.629 44.3155H158.12L164.807 28.8444H162.185V28.8444ZM140.158 39.3333H142.649V22.9444H140.158V39.3333Z" fill="white"/>
<path d="M13.6358 9.83301C13.2424 10.2263 13.1113 10.8819 13.1113 11.6686V40.6441C13.1113 41.4308 13.3736 42.0863 13.7669 42.4797L13.898 42.6108L30.1558 26.353V26.0908L13.6358 9.83301Z" fill="url(#paint0_linear_88_889)"/>
<path d="M35.4005 31.8593L30.0249 26.4837V26.0904L35.4005 20.7148L35.5316 20.846L41.956 24.5171C43.7916 25.566 43.7916 27.2704 41.956 28.3193L35.4005 31.8593V31.8593Z" fill="url(#paint1_linear_88_889)"/>
<path d="M35.5313 31.7283L30.0246 26.2217L13.6357 42.6106C14.2913 43.2661 15.2091 43.2661 16.3891 42.7417L35.5313 31.7283" fill="url(#paint2_linear_88_889)"/>
<path d="M35.5313 20.7151L16.3891 9.83285C15.2091 9.1773 14.2913 9.30841 13.6357 9.96396L30.0246 26.2217L35.5313 20.7151V20.7151Z" fill="url(#paint3_linear_88_889)"/>
<path opacity="0.2" d="M35.4002 31.5972L16.3891 42.3483C15.3402 43.0038 14.4224 42.8727 13.7669 42.3483L13.6357 42.4794L13.7669 42.6105C14.4224 43.1349 15.3402 43.2661 16.3891 42.6105L35.4002 31.5972Z" fill="black"/>
<path opacity="0.12" d="M13.6358 42.3483C13.2424 41.955 13.1113 41.2995 13.1113 40.5128V40.6439C13.1113 41.4306 13.3736 42.0861 13.7669 42.4795V42.3483H13.6358ZM41.9558 27.9261L35.4002 31.5972L35.5313 31.7283L41.9558 28.0572C42.8735 27.5328 43.2669 26.8772 43.2669 26.2217C43.2669 26.8772 42.7424 27.4017 41.9558 27.9261V27.9261Z" fill="black"/>
<path opacity="0.25" d="M16.3891 9.9638L41.9558 24.5171C42.7424 25.0416 43.2669 25.566 43.2669 26.2216C43.2669 25.566 42.8735 24.9105 41.9558 24.386L16.3891 9.83269C14.5536 8.7838 13.1113 9.57047 13.1113 11.6682V11.7994C13.1113 9.83269 14.5536 8.91491 16.3891 9.9638Z" fill="white"/>
<defs>
<linearGradient id="paint0_linear_88_889" x1="28.5824" y1="11.4195" x2="6.57806" y2="33.4225" gradientUnits="userSpaceOnUse">
<stop stop-color="#00A0FF"/>
<stop offset="0.007" stop-color="#00A1FF"/>
<stop offset="0.26" stop-color="#00BEFF"/>
<stop offset="0.512" stop-color="#00D2FF"/>
<stop offset="0.76" stop-color="#00DFFF"/>
<stop offset="1" stop-color="#00E3FF"/>
</linearGradient>
<linearGradient id="paint1_linear_88_889" x1="44.3606" y1="26.2228" x2="12.6356" y2="26.2228" gradientUnits="userSpaceOnUse">
<stop stop-color="#FFE000"/>
<stop offset="0.409" stop-color="#FFBD00"/>
<stop offset="0.775" stop-color="#FFA500"/>
<stop offset="1" stop-color="#FF9C00"/>
</linearGradient>
<linearGradient id="paint2_linear_88_889" x1="32.5511" y1="29.232" x2="2.71288" y2="59.0703" gradientUnits="userSpaceOnUse">
<stop stop-color="#FF3A44"/>
<stop offset="1" stop-color="#C31162"/>
</linearGradient>
<linearGradient id="paint3_linear_88_889" x1="9.56736" y1="0.230273" x2="22.8922" y2="13.5551" gradientUnits="userSpaceOnUse">
<stop stop-color="#32A071"/>
<stop offset="0.069" stop-color="#2DA771"/>
<stop offset="0.476" stop-color="#15CF74"/>
<stop offset="0.801" stop-color="#06E775"/>
<stop offset="1" stop-color="#00F076"/>
</linearGradient>
</defs>
</svg>
