<svg width="20" height="18" viewBox="0 0 20 18" fill="none" xmlns="http://www.w3.org/2000/svg">
<g id="arrow back-1 1" clip-path="url(#clip0_736_4145)">
<g id="Layer 2">
<g id="Layer 1">
<path id="arrow back-1" d="M1.08637 8.00362H16.526L11.243 2.68651C11.0569 2.49966 10.9522 2.24606 10.9519 1.98151C10.9515 1.71695 11.0557 1.46311 11.2413 1.27581C11.427 1.08852 11.6789 0.983131 11.9418 0.982819C12.2047 0.982508 12.4569 1.0873 12.643 1.27415L19.6166 8.29274C19.8021 8.47967 19.9062 8.73306 19.9062 8.99726C19.9062 9.26145 19.8021 9.51484 19.6166 9.70177L12.643 16.727C12.5523 16.825 12.4429 16.9035 12.3214 16.958C12.1999 17.0125 12.0687 17.0418 11.9357 17.0442C11.8027 17.0465 11.6706 17.0219 11.5473 16.9718C11.4239 16.9216 11.3119 16.847 11.2178 16.7523C11.1238 16.6576 11.0496 16.5449 10.9998 16.4207C10.95 16.2966 10.9255 16.1636 10.9279 16.0298C10.9302 15.8959 10.9593 15.7639 11.0134 15.6416C11.0676 15.5193 11.1456 15.4092 11.243 15.318L16.526 10.0009H1.08637C0.823656 10.0009 0.571701 9.89583 0.385935 9.70886C0.200167 9.52189 0.0958042 9.26831 0.0958042 9.0039C0.0958042 8.73949 0.200167 8.48591 0.385935 8.29895C0.571701 8.11198 0.823656 8.00694 1.08637 8.00694V8.00362Z" fill="black"/>
</g>
</g>
</g>
<defs>
<clipPath id="clip0_736_4145">
<rect width="19.8113" height="16.0377" fill="white" transform="matrix(-1 0 0 1 19.9062 0.98114)"/>
</clipPath>
</defs>
</svg>
