<svg width="20" height="20" viewBox="0 0 20 20" fill="none" xmlns="http://www.w3.org/2000/svg">
<g id="call received 1" clip-path="url(#clip0_736_4153)">
<g id="Layer 2">
<g id="Layer 1">
<path id="call received" d="M19.7071 10C19.707 9.81265 19.6325 9.63297 19.5 9.50047C19.3675 9.36797 19.1878 9.29348 19.0005 9.29336L2.7071 9.29337L6.80043 5.20003C6.93304 5.06742 7.00754 4.88756 7.00754 4.70003C7.00754 4.51249 6.93304 4.33263 6.80043 4.20002C6.66783 4.06742 6.48797 3.99292 6.30043 3.99292C6.1129 3.99292 5.93304 4.06742 5.80043 4.20002L0.500425 9.50003C0.367817 9.63264 0.293318 9.8125 0.293318 10C0.293318 10.1876 0.367817 10.3674 0.500425 10.5L5.80043 15.8C5.93304 15.9326 6.1129 16.0071 6.30043 16.0071C6.48797 16.0071 6.66783 15.9326 6.80043 15.8C6.93304 15.6674 7.00754 15.4876 7.00754 15.3C7.00754 15.1125 6.93304 14.9326 6.80043 14.8L2.70709 10.7067L19.0005 10.7067C19.1878 10.7066 19.3675 10.6321 19.5 10.4996C19.6325 10.3671 19.707 10.1874 19.7071 10Z" fill="white"/>
</g>
</g>
</g>
<defs>
<clipPath id="clip0_736_4153">
<rect width="14.1422" height="14.1422" fill="white" transform="translate(10) rotate(45)"/>
</clipPath>
</defs>
</svg>
