<svg width="16" height="17" viewBox="0 0 16 17" fill="none" xmlns="http://www.w3.org/2000/svg">
<g id="Group 58441">
<rect id="Rectangle 3209" y="0.5" width="16" height="16" rx="2" fill="#4675EF" fill-opacity="0.1"/>
<path id="Vector" fill-rule="evenodd" clip-rule="evenodd" d="M4.84766 7.77748C4.84766 5.61282 6.65654 3.86322 8.84455 3.86322C11.0388 3.86322 12.8477 5.61282 12.8477 7.77748C12.8477 8.86826 12.451 9.88091 11.798 10.7393C11.0777 11.686 10.1899 12.511 9.19048 13.1585C8.96177 13.3081 8.75537 13.3194 8.50432 13.1585C7.4993 12.511 6.61146 11.686 5.8973 10.7393C5.24388 9.88091 4.84766 8.86826 4.84766 7.77748ZM7.52729 7.89936C7.52729 8.62449 8.11904 9.19484 8.84455 9.19484C9.57057 9.19484 10.168 8.62449 10.168 7.89936C10.168 7.17983 9.57057 6.58173 8.84455 6.58173C8.11904 6.58173 7.52729 7.17983 7.52729 7.89936Z" fill="#4675EF"/>
</g>
</svg>
