<svg width="84" height="28" viewBox="0 0 84 28" fill="none" xmlns="http://www.w3.org/2000/svg">
<g clip-path="url(#clip0_84_920)">
<path d="M35.7461 14.3593C35.7461 18.2458 32.6609 21.1098 28.8747 21.1098C25.0886 21.1098 22.0034 18.2458 22.0034 14.3593C22.0034 10.4454 25.0886 7.60889 28.8747 7.60889C32.6609 7.60889 35.7461 10.4454 35.7461 14.3593ZM32.7381 14.3593C32.7381 11.9306 30.95 10.2689 28.8747 10.2689C26.7994 10.2689 25.0114 11.9306 25.0114 14.3593C25.0114 16.7637 26.7994 18.4498 28.8747 18.4498C30.95 18.4498 32.7381 16.7606 32.7381 14.3593Z" fill="#EA4335"/>
<path d="M50.5698 14.3593C50.5698 18.2458 47.4846 21.1098 43.6985 21.1098C39.9123 21.1098 36.8271 18.2458 36.8271 14.3593C36.8271 10.4485 39.9123 7.60889 43.6985 7.60889C47.4846 7.60889 50.5698 10.4454 50.5698 14.3593ZM47.5619 14.3593C47.5619 11.9306 45.7738 10.2689 43.6985 10.2689C41.6232 10.2689 39.8351 11.9306 39.8351 14.3593C39.8351 16.7637 41.6232 18.4498 43.6985 18.4498C45.7738 18.4498 47.5619 16.7606 47.5619 14.3593Z" fill="#FBBC05"/>
<path d="M64.7757 8.01671V20.1358C64.7757 25.1211 61.7925 27.1571 58.2657 27.1571C54.9459 27.1571 52.9478 24.9689 52.1942 23.1793L54.8131 22.105C55.2794 23.2037 56.422 24.5002 58.2626 24.5002C60.5201 24.5002 61.9191 23.1276 61.9191 20.5437V19.5728H61.8141C61.1409 20.3915 59.8438 21.1067 58.207 21.1067C54.7822 21.1067 51.6445 18.1667 51.6445 14.3837C51.6445 10.5732 54.7822 7.60889 58.207 7.60889C59.8407 7.60889 61.1378 8.3241 61.8141 9.11845H61.9191V8.01976H64.7757V8.01671ZM62.1322 14.3837C62.1322 12.0067 60.5232 10.2689 58.4757 10.2689C56.4004 10.2689 54.6617 12.0067 54.6617 14.3837C54.6617 16.7363 56.4004 18.4498 58.4757 18.4498C60.5232 18.4498 62.1322 16.7363 62.1322 14.3837Z" fill="#4285F4"/>
<path d="M69.4851 0.913086V20.6957H66.5513V0.913086H69.4851Z" fill="#34A853"/>
<path d="M80.9181 16.5807L83.2528 18.1146C82.4993 19.2133 80.6834 21.1063 77.5457 21.1063C73.6546 21.1063 70.7485 18.142 70.7485 14.3559C70.7485 10.3416 73.6793 7.60547 77.2091 7.60547C80.7637 7.60547 82.5024 10.3933 83.0706 11.8998L83.3825 12.6668L74.2259 16.4042C74.9269 17.7585 76.0171 18.4494 77.5457 18.4494C79.0775 18.4494 80.1399 17.7068 80.9181 16.5807ZM73.7318 14.152L79.8527 11.6472C79.516 10.8042 78.5031 10.2168 77.311 10.2168C75.7824 10.2168 73.6546 11.5468 73.7318 14.152V14.152Z" fill="#EA4335"/>
<path d="M10.8985 12.6031V9.73915H20.6913C20.7871 10.2383 20.8365 10.8287 20.8365 11.4678C20.8365 13.6165 20.2404 16.2735 18.3196 18.1665C16.4512 20.0839 14.064 21.1065 10.9016 21.1065C5.04015 21.1065 0.111328 16.4013 0.111328 10.6248C0.111328 4.84828 5.04015 0.143066 10.9016 0.143066C14.1443 0.143066 16.4543 1.39698 18.1899 3.03133L16.1393 5.0522C14.8947 3.90176 13.2085 3.00698 10.8985 3.00698C6.61824 3.00698 3.27059 6.40654 3.27059 10.6248C3.27059 14.8431 6.61824 18.2426 10.8985 18.2426C13.6749 18.2426 15.256 17.1439 16.269 16.1457C17.0904 15.3361 17.6309 14.1796 17.844 12.6L10.8985 12.6031V12.6031Z" fill="#4285F4"/>
</g>
<defs>
<clipPath id="clip0_84_920">
<rect width="84" height="28" fill="white"/>
</clipPath>
</defs>
</svg>
