<svg width="122" height="26" viewBox="0 0 122 26" fill="none" xmlns="http://www.w3.org/2000/svg">
<g clip-path="url(#clip0_84_927)">
<path d="M43.0636 14.9753L42.3365 17.0311H42.2759C42.1547 16.5675 41.9325 15.8621 41.5689 15.0156L37.6706 5.24042H33.853V20.8203H36.3779V11.2063C36.3779 10.6017 36.3779 9.91639 36.3577 9.06987C36.3375 8.64662 36.2971 8.32414 36.2769 8.08228H36.3375C36.4587 8.68693 36.6 9.13034 36.701 9.41251L41.3871 20.78H43.1646L47.8103 9.31173C47.9113 9.04972 48.0123 8.52569 48.1133 8.08228H48.1739C48.1133 9.23111 48.0729 10.259 48.0527 10.8838V20.7598H50.7391V5.20011H47.063L43.0636 14.9753V14.9753ZM53.2841 9.5939H55.91V20.7598H53.2841V9.5939ZM54.6173 4.87763C54.1729 4.87763 53.8093 5.03887 53.5063 5.32104C53.2034 5.60321 53.0418 5.966 53.0418 6.40941C53.0418 6.83266 53.2034 7.19546 53.5063 7.47763C53.8093 7.7598 54.1729 7.90088 54.6173 7.90088C55.0616 7.90088 55.4454 7.73964 55.7282 7.47763C56.0312 7.19546 56.1928 6.83266 56.1928 6.40941C56.1928 5.98615 56.0312 5.62336 55.7282 5.32104C55.4656 5.03887 55.0818 4.87763 54.6173 4.87763V4.87763ZM65.2216 9.49313C64.7368 9.39235 64.2318 9.33189 63.7471 9.33189C62.5553 9.33189 61.4646 9.59391 60.5557 10.1179C59.6467 10.642 58.9196 11.3675 58.455 12.2745C57.9702 13.2017 57.7279 14.2699 57.7279 15.4993C57.7279 16.5675 57.9702 17.5148 58.4348 18.3815C58.8994 19.228 59.5457 19.9133 60.4143 20.3769C61.2424 20.8404 62.212 21.0823 63.3027 21.0823C64.555 21.0823 65.6255 20.8203 66.4739 20.3365L66.4941 20.3164V17.8978L66.3931 17.9784C66.0093 18.2606 65.5649 18.5024 65.1206 18.6435C64.656 18.8048 64.2318 18.8854 63.8683 18.8854C62.8179 18.8854 61.9898 18.5831 61.404 17.9179C60.7981 17.273 60.4951 16.3862 60.4951 15.2776C60.4951 14.1288 60.7981 13.2218 61.4242 12.5567C62.0504 11.8916 62.8785 11.5489 63.8885 11.5489C64.7368 11.5489 65.6053 11.8311 66.3931 12.3955L66.4941 12.4761V9.91639L66.4739 9.89623C66.1305 9.75515 65.7467 9.5939 65.2216 9.49313V9.49313ZM73.8868 9.41251C73.2404 9.41251 72.6345 9.61406 72.1093 10.0373C71.6649 10.4001 71.362 10.9241 71.0994 11.5489H71.0792V9.5939H68.4534V20.7598H71.0792V15.0559C71.0792 14.0885 71.2812 13.2823 71.7255 12.6978C72.1699 12.0931 72.7355 11.7908 73.4222 11.7908C73.6646 11.7908 73.907 11.8513 74.21 11.8916C74.4928 11.9722 74.6947 12.0528 74.8361 12.1536L74.9371 12.2342V9.61406L74.8765 9.5939C74.6947 9.47297 74.3312 9.41251 73.8868 9.41251V9.41251ZM81.0371 9.35205C79.199 9.35205 77.7245 9.89623 76.6944 10.9644C75.6441 12.0327 75.1391 13.504 75.1391 15.3582C75.1391 17.0916 75.6643 18.5024 76.6742 19.5303C77.6841 20.5381 79.0577 21.0621 80.7745 21.0621C82.5722 21.0621 84.0063 20.5179 85.0365 19.4296C86.0868 18.3412 86.5918 16.89 86.5918 15.0962C86.5918 13.3226 86.107 11.9117 85.1173 10.8838C84.1679 9.85592 82.7742 9.35205 81.0371 9.35205V9.35205ZM83.1378 17.9381C82.653 18.5629 81.8855 18.8652 80.9361 18.8652C79.9868 18.8652 79.2192 18.5629 78.6739 17.8978C78.1285 17.273 77.8659 16.366 77.8659 15.2172C77.8659 14.028 78.1487 13.121 78.6739 12.4761C79.2192 11.8311 79.9666 11.5086 80.9159 11.5086C81.8451 11.5086 82.5722 11.811 83.0974 12.4358C83.6226 13.0606 83.9053 13.9675 83.9053 15.1567C83.8649 16.366 83.6428 17.3133 83.1378 17.9381V17.9381ZM92.4494 14.2296C91.6212 13.8869 91.0961 13.6249 90.8537 13.4032C90.6517 13.2017 90.5507 12.9195 90.5507 12.5567C90.5507 12.2544 90.6719 11.952 90.9749 11.7505C91.2779 11.5489 91.6212 11.4482 92.1262 11.4482C92.5706 11.4482 93.0351 11.5288 93.4795 11.6497C93.9239 11.7706 94.3279 11.952 94.651 12.1939L94.752 12.2745V9.81561L94.6914 9.79546C94.3884 9.67453 93.9845 9.5536 93.4997 9.45282C93.0149 9.3722 92.5706 9.33189 92.207 9.33189C90.9547 9.33189 89.9245 9.63422 89.1166 10.2993C88.3087 10.9241 87.9249 11.7706 87.9249 12.7582C87.9249 13.2823 88.0057 13.7458 88.1875 14.1288C88.3692 14.5117 88.6318 14.8745 88.9954 15.1769C89.359 15.459 89.8841 15.7815 90.6113 16.0838C91.2173 16.3458 91.6818 16.5474 91.9646 16.7086C92.2474 16.8699 92.4292 17.0513 92.5706 17.1924C92.6716 17.3536 92.7322 17.5551 92.7322 17.8172C92.7322 18.5629 92.1666 18.9257 91.0153 18.9257C90.5709 18.9257 90.1063 18.8451 89.561 18.6637C89.0156 18.4823 88.5106 18.2203 88.0865 17.9179L87.9855 17.8373V20.397L88.0461 20.4172C88.4298 20.5986 88.8944 20.7195 89.46 20.8606C90.0255 20.9613 90.5305 21.042 90.9749 21.042C92.3282 21.042 93.4391 20.7396 94.2269 20.0745C95.0348 19.4296 95.459 18.6032 95.459 17.535C95.459 16.7893 95.257 16.1241 94.8126 15.6203C94.2269 15.1365 93.4997 14.6327 92.4494 14.2296V14.2296ZM102.387 9.35205C100.549 9.35205 99.0745 9.89623 98.0444 10.9644C97.0143 12.0327 96.4891 13.504 96.4891 15.3582C96.4891 17.0916 97.0143 18.5024 98.0242 19.5303C99.0341 20.5381 100.408 21.0621 102.125 21.0621C103.922 21.0621 105.356 20.5179 106.386 19.4296C107.437 18.3412 107.942 16.89 107.942 15.0962C107.942 13.3226 107.457 11.9117 106.467 10.8838C105.518 9.85592 104.124 9.35205 102.387 9.35205V9.35205ZM104.468 17.9381C103.983 18.5629 103.215 18.8652 102.266 18.8652C101.296 18.8652 100.549 18.5629 100.004 17.8978C99.4583 17.273 99.1957 16.366 99.1957 15.2172C99.1957 14.028 99.4785 13.121 100.004 12.4761C100.549 11.8311 101.296 11.5086 102.246 11.5086C103.155 11.5086 103.902 11.811 104.427 12.4358C104.952 13.0606 105.235 13.9675 105.235 15.1567C105.235 16.366 104.973 17.3133 104.468 17.9381V17.9381ZM121.98 11.7505V9.5939H119.334V6.28848L119.253 6.30863L116.748 7.05437L116.688 7.07453V9.5939H112.729V8.18305C112.729 7.53809 112.89 7.03422 113.173 6.71173C113.456 6.38925 113.88 6.22801 114.405 6.22801C114.769 6.22801 115.153 6.30863 115.577 6.49003L115.678 6.55049V4.27298L115.617 4.25282C115.254 4.13189 114.769 4.05127 114.143 4.05127C113.355 4.05127 112.668 4.23266 112.042 4.53499C111.416 4.87763 110.951 5.34119 110.608 5.966C110.265 6.57065 110.083 7.25592 110.083 8.04197V9.5939H108.245V11.7303H110.083V20.7598H112.729V11.7505H116.688V17.4947C116.688 19.8528 117.799 21.042 120.021 21.042C120.384 21.042 120.768 20.9815 121.131 20.921C121.515 20.8404 121.798 20.7396 121.96 20.659L121.98 20.6389V18.4823L121.879 18.5629C121.717 18.6637 121.576 18.7443 121.333 18.8048C121.131 18.8652 120.95 18.8854 120.808 18.8854C120.283 18.8854 119.92 18.7644 119.657 18.4621C119.415 18.18 119.293 17.7164 119.293 17.0311V11.7505H121.98V11.7505Z" fill="#737373"/>
<path d="M0 0H12.3818V12.355H0V0Z" fill="#F25022"/>
<path d="M13.6743 0H26.0561V12.355H13.6743V0Z" fill="#7FBA00"/>
<path d="M0 13.645H12.3818V26.0001H0V13.645Z" fill="#00A4EF"/>
<path d="M13.6743 13.645H26.0561V26.0001H13.6743V13.645Z" fill="#FFB900"/>
</g>
<defs>
<clipPath id="clip0_84_927">
<rect width="122" height="26" fill="white"/>
</clipPath>
</defs>
</svg>
