<svg width="111" height="26" viewBox="0 0 111 26" fill="none" xmlns="http://www.w3.org/2000/svg">
<g clip-path="url(#clip0_84_933)">
<path d="M39.5019 9.24802V10.7215H39.547C40.0772 9.9326 40.9574 9.00353 42.9084 9.00353C44.4262 9.00353 45.5906 9.77612 46.0896 10.9432H46.1347C46.5609 10.3531 47.0495 9.90652 47.5971 9.59031C48.2451 9.21542 48.9659 9.00027 49.8738 9.00027C51.9288 9.00027 53.7481 10.3368 53.7481 13.7076V20.1002H50.6154V14.1542C50.6154 12.446 49.9986 11.4582 48.7164 11.4582C47.7773 11.4582 47.0946 12.0515 46.8347 12.7818C46.7446 13.0328 46.703 13.3751 46.703 13.6619V20.1035H43.5703V13.9129C43.5703 12.4623 42.9777 11.455 41.7128 11.455C40.7009 11.455 40.0668 12.2048 39.8069 12.847C39.696 13.1208 39.6613 13.437 39.6613 13.7336V20.1002H36.5251V9.24802H39.5019ZM69.9176 9.24802V11.2952H70.0042C70.5795 9.73049 71.9448 9.00353 73.1439 9.00353C73.4453 9.00353 73.6117 9.02635 73.8543 9.07198V11.9146C73.5666 11.8755 73.2998 11.8364 72.9255 11.8364C71.5671 11.8364 70.6211 12.5796 70.3819 13.7434C70.33 13.9847 70.3126 14.2455 70.3126 14.5454V20.1035H67.0968V9.24802H69.9176ZM78.2206 5.65234V9.06872H80.9375V11.8331H78.2206V15.9113C78.2206 17.2315 78.5776 17.8705 79.638 17.8705C80.137 17.8705 80.5043 17.8118 80.8231 17.7368L80.8647 20.0285C80.4385 20.1785 79.5306 20.3415 78.6088 20.3415C77.5241 20.3415 76.6196 19.9861 76.0686 19.4352C75.4379 18.8061 75.1469 17.7759 75.1469 16.309V5.65234H78.2206ZM34.342 20.1002H31.2231V5.65234H34.342V20.1002ZM26.025 16.2242C26.025 16.4231 26.0077 16.6317 25.9488 16.811C25.7062 17.564 24.878 18.1997 23.8453 18.1997C22.9824 18.1997 22.2963 17.7401 22.2963 16.7654C22.2963 15.2756 24.0428 14.8616 26.0285 14.8714V16.2242H26.025ZM29.1404 13.6261C29.1404 11.1648 28.0246 9.00353 24.2508 9.00353C22.3136 9.00353 20.775 9.51533 19.9364 9.97172L20.5497 11.9472C21.3156 11.4908 22.5389 11.1159 23.6963 11.1159C25.6127 11.1127 25.9245 12.1363 25.9245 12.7915V12.948C21.7487 12.9415 19.1116 14.3009 19.1116 17.0718C19.1116 18.7637 20.4527 20.348 22.7884 20.348C24.2265 20.348 25.4255 19.8101 26.1463 18.9462H26.2156C26.2156 18.9462 26.6939 20.8207 29.3206 20.1035C29.182 19.3211 29.1369 18.4898 29.1369 17.4891V13.6261H29.1404ZM3.44459 5.65234C3.76687 7.18124 4.68173 11.6212 4.68173 11.6212C5.06639 13.4468 5.41986 15.3603 5.6867 16.8729H5.73521C5.99511 15.2658 6.40403 13.7434 6.84067 11.8592L8.38276 5.65234H11.7962L13.2378 12.0189C13.6155 13.7891 13.917 15.155 14.1561 16.8012H14.2011C14.461 15.1387 14.8007 13.7173 15.1715 11.8983L16.5576 5.65234H19.8324L15.7744 20.1002C13.1893 20.6316 12.1982 19.6536 11.8447 18.1019C11.4912 16.5469 10.7981 13.5902 10.7981 13.5902C10.4412 11.97 10.164 10.8291 9.96991 9.16652H9.92139C9.64416 10.8128 9.35307 11.9668 8.92336 13.587L7.22186 20.1035C4.58124 20.599 3.66638 19.8655 3.16043 17.8737C2.72379 16.1688 0 5.6556 0 5.6556H3.44459V5.65234ZM61.8987 16.2242C61.8987 16.4231 61.8814 16.6317 61.8225 16.811C61.5799 17.564 60.7516 18.1997 59.719 18.1997C58.8561 18.1997 58.1699 17.7401 58.1699 16.7654C58.1699 15.2756 59.9165 14.8616 61.9022 14.8714V16.2242H61.8987ZM65.0141 13.6261C65.0141 11.1648 63.8982 9.00353 60.1244 9.00353C58.1873 9.00353 56.6486 9.51533 55.81 9.97172L56.4234 11.9472C57.1892 11.4908 58.4125 11.1159 59.5699 11.1159C61.4828 11.1127 61.7982 12.1363 61.7982 12.7915V12.948C57.6259 12.9415 54.9887 14.3009 54.9887 17.0718C54.9887 18.7637 56.3333 20.348 58.6655 20.348C60.1002 20.348 61.3026 19.8101 62.02 18.9462H62.0927C62.0927 18.9462 62.571 20.8207 65.1977 20.1035C65.0591 19.3211 65.0141 18.4898 65.0141 17.4891V13.6261Z" fill="#041E42"/>
<path d="M93.5802 15.1241C93.8877 15.6517 93.8669 16.2406 93.5388 16.5096L87.8669 20.4276C87.2762 20.7646 86.3919 20.3561 85.8911 19.5017C85.3868 18.6439 85.4766 17.6874 86.0672 17.3504L92.3471 14.4705C92.7409 14.3208 93.2728 14.5965 93.5802 15.1241ZM101.045 15.1241C101.356 14.5965 101.884 14.3242 102.278 14.4671L108.561 17.3469C109.152 17.6839 109.238 18.6405 108.737 19.4983C108.233 20.3527 107.345 20.7578 106.758 20.4242L101.086 16.5062C100.762 16.2406 100.737 15.6483 101.045 15.1241ZM97.3108 17.2482C97.9291 17.2482 98.4369 17.5614 98.506 17.9733L99.1174 24.7745C99.1174 25.4485 98.3195 26 97.3143 26C96.3126 26 95.5112 25.4485 95.5112 24.7745L96.1191 17.9733C96.1882 17.5614 96.696 17.2482 97.3108 17.2482ZM101.086 9.49385L106.758 5.5724C107.345 5.2354 108.233 5.64048 108.737 6.4983C109.238 7.35611 109.152 8.31265 108.561 8.64965L102.278 11.5329C101.884 11.6758 101.352 11.4035 101.045 10.8759C100.737 10.3483 100.762 9.75936 101.086 9.49385ZM92.3471 11.5329L86.0672 8.64965C85.48 8.31265 85.3902 7.35611 85.8911 6.4983C86.3919 5.64048 87.2797 5.2354 87.8669 5.5724L93.5388 9.49385C93.8669 9.75596 93.8877 10.3483 93.5802 10.8759C93.2728 11.4035 92.7409 11.6758 92.3471 11.5329ZM96.1191 8.02671L95.5112 1.22545C95.5112 0.551453 96.3091 0 97.3143 0C98.3195 0 99.1174 0.551453 99.1174 1.22545L98.506 8.02671C98.4369 8.43519 97.9291 8.75177 97.3108 8.75177C96.696 8.75177 96.1882 8.43519 96.1191 8.02671ZM110.271 20.4004V20.2302H110.427C110.478 20.2302 110.513 20.2642 110.513 20.3153C110.513 20.3629 110.478 20.4004 110.427 20.4004H110.271ZM110.143 20.7101C110.143 20.7272 110.157 20.7442 110.178 20.7442H110.244C110.261 20.7442 110.278 20.7272 110.278 20.7101V20.5161H110.385L110.472 20.7203C110.478 20.734 110.489 20.7442 110.503 20.7442H110.582C110.606 20.7442 110.624 20.7203 110.613 20.6965C110.582 20.6352 110.551 20.5706 110.52 20.5059C110.572 20.4889 110.651 20.4378 110.651 20.3153C110.651 20.1859 110.544 20.111 110.437 20.111H110.178C110.161 20.111 110.143 20.128 110.143 20.1451V20.7101ZM109.864 20.4276C109.864 20.1519 110.092 19.9272 110.371 19.9272C110.651 19.9272 110.879 20.1485 110.879 20.4276C110.879 20.7033 110.655 20.928 110.371 20.928C110.088 20.928 109.864 20.7033 109.864 20.4276ZM109.743 20.4276C109.743 20.768 110.022 21.0471 110.371 21.0471C110.717 21.0471 111 20.768 111 20.4276C111 20.0872 110.717 19.8081 110.371 19.8081C110.022 19.8081 109.743 20.0872 109.743 20.4276Z" fill="#FFC124"/>
</g>
<defs>
<clipPath id="clip0_84_933">
<rect width="111" height="26" fill="white"/>
</clipPath>
</defs>
</svg>
