<svg width="483" height="486" viewBox="0 0 483 486" fill="none" xmlns="http://www.w3.org/2000/svg">
<path d="M127.408 88.6614L127.516 96.3683C128.299 152.168 188.649 186.675 237.135 159.046L244.103 155.075C289.676 129.106 346.353 161.789 346.705 214.241L346.828 232.584C347.082 270.535 384.521 297.025 420.394 284.636V284.636" stroke="white" stroke-width="0.653416"/>
<path d="M124.851 93.0921L124.959 100.799C125.742 156.598 186.092 191.105 234.577 163.476L241.545 159.506C287.118 133.536 343.796 166.22 344.147 218.671L344.27 237.015C344.524 274.965 381.964 301.456 417.836 289.067V289.067" stroke="white" stroke-width="0.653416"/>
<path d="M122.293 97.5227L122.401 105.23C123.184 161.029 183.534 195.536 232.019 167.907L238.987 163.936C284.56 137.967 341.238 170.65 341.589 223.102L341.712 241.445C341.967 279.396 379.406 305.887 415.279 293.497V293.497" stroke="white" stroke-width="0.653416"/>
<path d="M119.735 101.953L119.843 109.66C120.625 165.46 180.976 199.967 229.461 172.338L236.429 168.367C282.002 142.398 338.679 175.081 339.031 227.533L339.154 245.876C339.408 283.827 376.848 310.317 412.72 297.928V297.928" stroke="white" stroke-width="0.653416"/>
<path d="M117.177 106.383L117.285 114.09C118.068 169.889 178.418 204.396 226.903 176.767L233.871 172.797C279.444 146.827 336.122 179.511 336.473 231.962L336.596 250.306C336.85 288.256 374.29 314.747 410.162 302.358V302.358" stroke="white" stroke-width="0.653416"/>
<path d="M114.618 110.815L114.726 118.522C115.509 174.321 175.859 208.828 224.345 181.199L231.313 177.228C276.886 151.259 333.563 183.942 333.915 236.394L334.037 254.737C334.292 292.688 371.731 319.179 407.604 306.789V306.789" stroke="white" stroke-width="0.653416"/>
<path d="M112.061 115.244L112.169 122.951C112.951 178.751 173.302 213.258 221.787 185.629L228.755 181.658C274.328 155.689 331.006 188.372 331.357 240.824L331.48 259.167C331.734 297.118 369.174 323.608 405.046 311.219V311.219" stroke="white" stroke-width="0.653416"/>
<path d="M109.503 119.675L109.611 127.382C110.394 183.181 170.744 217.688 219.229 190.059L226.197 186.089C271.77 160.119 328.448 192.803 328.799 245.254L328.922 263.598C329.177 301.548 366.616 328.039 402.489 315.65V315.65" stroke="white" stroke-width="0.653416"/>
<path d="M106.944 124.106L107.053 131.813C107.835 187.612 168.186 222.119 216.671 194.49L223.639 190.519C269.212 164.55 325.889 197.233 326.241 249.685L326.364 268.028C326.618 305.979 364.057 332.47 399.93 320.08V320.08" stroke="white" stroke-width="0.653416"/>
<path d="M104.387 128.536L104.495 136.243C105.278 192.043 165.628 226.55 214.113 198.921L221.081 194.95C266.654 168.981 323.332 201.664 323.683 254.116L323.806 272.459C324.06 310.41 361.5 336.9 397.372 324.511V324.511" stroke="white" stroke-width="0.653416"/>
<path d="M101.829 132.966L101.937 140.673C102.72 196.472 163.07 230.979 211.556 203.35L218.524 199.38C264.096 173.41 320.774 206.094 321.126 258.545L321.248 276.889C321.503 314.839 358.942 341.33 394.815 328.941V328.941" stroke="white" stroke-width="0.653416"/>
<path d="M99.2706 137.397L99.3787 145.104C100.161 200.903 160.512 235.41 208.997 207.781L215.965 203.81C261.538 177.841 318.216 210.524 318.567 262.976L318.69 281.319C318.944 319.27 356.384 345.761 392.256 333.371V333.371" stroke="white" stroke-width="0.653416"/>
<path d="M96.713 141.828L96.8211 149.535C97.6038 205.335 157.954 239.842 206.439 212.213L213.407 208.242C258.98 182.273 315.658 214.956 316.009 267.408L316.132 285.751C316.386 323.702 353.826 350.192 389.699 337.803V337.803" stroke="white" stroke-width="0.653416"/>
<path d="M94.1554 146.258L94.2635 153.965C95.0462 209.764 155.396 244.271 203.882 216.642L210.85 212.672C256.423 186.702 313.1 219.386 313.452 271.837L313.575 290.181C313.829 328.131 351.268 354.622 387.141 342.233V342.233" stroke="white" stroke-width="0.653416"/>
<path d="M91.5978 150.689L91.7059 158.396C92.4886 214.195 152.839 248.702 201.324 221.073L208.292 217.102C253.865 191.133 310.543 223.816 310.894 276.268L311.017 294.611C311.271 332.562 348.711 359.053 384.583 346.663V346.663" stroke="white" stroke-width="0.653416"/>
<path d="M89.0997 155.015L89.2078 162.722C89.9906 218.521 150.341 253.028 198.826 225.399L205.794 221.429C251.367 195.459 308.045 228.143 308.396 280.594L308.519 298.937C308.773 336.888 346.213 363.379 382.085 350.99V350.99" stroke="white" stroke-width="0.653416"/>
<path d="M86.6027 159.34L86.7108 167.047C87.4935 222.846 147.844 257.353 196.329 229.724L203.297 225.754C248.87 199.784 305.548 232.468 305.899 284.919L306.022 303.263C306.276 341.213 343.716 367.704 379.588 355.315V355.315" stroke="white" stroke-width="0.653416"/>
<path d="M84.1036 163.666L84.2117 171.373C84.9945 227.172 145.345 261.68 193.83 234.051L200.798 230.08C246.371 204.111 303.049 236.794 303.4 289.246L303.523 307.589C303.777 345.54 341.217 372.03 377.089 359.641V359.641" stroke="white" stroke-width="0.653416"/>
<path d="M81.6075 167.991L81.7157 175.698C82.4984 231.498 142.849 266.005 191.334 238.376L198.302 234.405C243.875 208.436 300.552 241.119 300.904 293.571L301.027 311.914C301.281 349.865 338.721 376.355 374.593 363.966V363.966" stroke="white" stroke-width="0.653416"/>
<path d="M79.1095 172.318L79.2176 180.025C80.0003 235.824 140.351 270.331 188.836 242.702L195.804 238.731C241.377 212.762 298.054 245.445 298.406 297.897L298.529 316.24C298.783 354.191 336.223 380.681 372.095 368.292V368.292" stroke="white" stroke-width="0.653416"/>
<path d="M76.6124 176.642L76.7205 184.349C77.5033 240.148 137.854 274.655 186.339 247.026L193.307 243.056C238.88 217.086 295.557 249.77 295.909 302.221L296.032 320.564C296.286 358.515 333.725 385.006 369.598 372.617V372.617" stroke="white" stroke-width="0.653416"/>
<path d="M74.1154 180.968L74.2235 188.675C75.0062 244.474 135.356 278.981 183.842 251.352L190.81 247.382C236.383 221.412 293.06 254.096 293.412 306.547L293.535 324.891C293.789 362.841 331.228 389.332 367.101 376.943V376.943" stroke="white" stroke-width="0.653416"/>
<path d="M71.6183 185.293L71.7264 193C72.5091 248.799 132.859 283.306 181.345 255.678L188.313 251.707C233.886 225.738 290.563 258.421 290.915 310.873L291.037 329.216C291.292 367.167 328.731 393.657 364.604 381.268V381.268" stroke="white" stroke-width="0.653416"/>
<path d="M69.1212 189.619L69.2293 197.326C70.012 253.126 130.362 287.633 178.848 260.004L185.816 256.033C231.388 230.064 288.066 262.747 288.418 315.199L288.54 333.542C288.795 371.493 326.234 397.983 362.107 385.594V385.594" stroke="white" stroke-width="0.653416"/>
<path d="M66.6222 193.945L66.7303 201.651C67.513 257.451 127.863 291.958 176.349 264.329L183.317 260.358C228.889 234.389 285.567 267.072 285.919 319.524L286.041 337.867C286.296 375.818 323.735 402.308 359.608 389.919V389.919" stroke="white" stroke-width="0.653416"/>
<path d="M64.1261 198.271L64.2342 205.978C65.0169 261.777 125.367 296.284 173.852 268.655L180.82 264.684C226.393 238.715 283.071 271.398 283.422 323.85L283.545 342.193C283.8 380.144 321.239 406.635 357.112 394.246V394.246" stroke="white" stroke-width="0.653416"/>
<path d="M61.6281 202.596L61.7362 210.303C62.5189 266.102 122.869 300.609 171.354 272.98L178.322 269.01C223.895 243.04 280.573 275.724 280.924 328.175L281.047 346.518C281.302 384.469 318.741 410.96 354.614 398.571V398.571" stroke="white" stroke-width="0.653416"/>
<path d="M59.131 206.922L59.2391 214.629C60.0218 270.428 120.372 304.935 168.857 277.306L175.825 273.336C221.398 247.366 278.076 280.05 278.427 332.501L278.55 350.845C278.804 388.795 316.244 415.286 352.117 402.897V402.897" stroke="white" stroke-width="0.653416"/>
<path d="M56.6329 211.247L56.741 218.954C57.5238 274.754 117.874 309.261 166.359 281.632L173.327 277.661C218.9 251.692 275.578 284.375 275.929 336.827L276.052 355.17C276.306 393.121 313.746 419.611 349.618 407.222V407.222" stroke="white" stroke-width="0.653416"/>
</svg>
